<!-- Generated by IcoMoon.io -->
<svg version="1.1" xmlns="http://www.w3.org/2000/svg" width="32" height="32" viewBox="0 0 32 32">
<title>facebook-icon</title>
<path fill="#011c44" d="M23.98 1.62c-1.34-0.14-2.69-0.21-4.050-0.21-4.48 0-7.27 2.86-7.27 7.46v3.12h-3.77c-0.17 0-0.34 0.070-0.47 0.19-0.12 0.13-0.19 0.3-0.19 0.48v5.13c0 0.18 0.070 0.35 0.19 0.47 0.13 0.13 0.3 0.2 0.47 0.2h3.77v10.29c0 0.18 0.070 0.35 0.2 0.47 0.12 0.13 0.29 0.2 0.47 0.2h5.3c0.18 0 0.35-0.070 0.47-0.2 0.13-0.12 0.2-0.29 0.2-0.47v-10.29h3.75c0.17 0 0.32-0.060 0.44-0.17 0.13-0.11 0.2-0.25 0.23-0.41l0.66-5.14c0.010-0.090 0-0.19-0.030-0.28-0.020-0.090-0.070-0.17-0.13-0.24s-0.14-0.13-0.23-0.17c-0.080-0.040-0.18-0.060-0.27-0.060h-4.42v-2.61c0-1.3 0.26-1.84 1.88-1.84h2.71c0.18 0 0.35-0.070 0.48-0.19 0.12-0.13 0.19-0.3 0.19-0.47v-4.6c0-0.16-0.060-0.31-0.16-0.44-0.11-0.12-0.26-0.2-0.42-0.22zM23.23 6.21h-2.050c-2.88 0-3.21 1.81-3.21 3.17v3.28c0 0.17 0.070 0.34 0.19 0.47 0.13 0.12 0.29 0.19 0.47 0.19h4.33l-0.49 3.8h-3.84c-0.17 0-0.34 0.070-0.47 0.2-0.12 0.12-0.19 0.29-0.19 0.47v10.29h-3.97v-10.29c0-0.18-0.080-0.35-0.2-0.47-0.13-0.13-0.29-0.2-0.47-0.2h-3.77v-3.8h3.77c0.18 0 0.34-0.070 0.47-0.19 0.12-0.13 0.2-0.3 0.2-0.47v-3.79c0-3.83 2.22-6.12 5.93-6.12 1.35 0 2.56 0.070 3.3 0.14v3.32z"></path>
</svg>
