<!-- Generated by IcoMoon.io -->
<svg version="1.1" xmlns="http://www.w3.org/2000/svg" width="32" height="32" viewBox="0 0 32 32">
<title>fcebook-icon-footer</title>
<path fill="#fff" d="M23.985 2.126c-1.349-0.145-2.697-0.213-4.053-0.206-4.48 0-7.269 2.85-7.269 7.451v3.116h-3.764c-0.183 0-0.35 0.076-0.472 0.198-0.13 0.122-0.198 0.297-0.198 0.472v5.135c0 0.175 0.069 0.343 0.198 0.472 0.122 0.122 0.29 0.19 0.472 0.19h3.764v10.293c0 0.175 0.069 0.35 0.198 0.472 0.122 0.122 0.29 0.198 0.472 0.198h5.303c0.175 0 0.343-0.076 0.472-0.198 0.122-0.122 0.19-0.297 0.19-0.472v-10.293h3.756c0.16 0 0.32-0.061 0.442-0.168s0.198-0.251 0.221-0.411l0.663-5.135c0.008-0.091 0-0.19-0.023-0.282-0.030-0.084-0.076-0.168-0.137-0.244-0.061-0.069-0.145-0.13-0.229-0.168s-0.183-0.061-0.274-0.061h-4.419v-2.606c0-1.295 0.259-1.836 1.882-1.836h2.712c0.183 0 0.35-0.069 0.472-0.198 0.13-0.122 0.198-0.29 0.198-0.472v-4.587c0-0.168-0.061-0.32-0.168-0.442s-0.251-0.198-0.411-0.221zM23.23 6.712h-2.057c-2.872 0-3.208 1.806-3.208 3.17v3.276c0 0.175 0.069 0.35 0.198 0.472 0.122 0.122 0.29 0.198 0.465 0.198h4.335l-0.495 3.794h-3.832c-0.183 0-0.35 0.076-0.472 0.198-0.13 0.122-0.198 0.297-0.198 0.472v10.293h-3.97v-10.293c0-0.175-0.069-0.35-0.198-0.472-0.122-0.122-0.29-0.198-0.465-0.198h-3.771v-3.794h3.771c0.175 0 0.343-0.076 0.465-0.198 0.13-0.122 0.198-0.297 0.198-0.472v-3.787c0-3.832 2.217-6.118 5.935-6.118 1.349 0 2.56 0.069 3.299 0.137v3.322z"></path>
</svg>
