<!-- Generated by IcoMoon.io -->
<svg version="1.1" xmlns="http://www.w3.org/2000/svg" width="32" height="32" viewBox="0 0 32 32">
<title>instagram-icon</title>
<path fill="#011c44" d="M16 9.75c-1.14 0-2.25 0.33-3.2 0.96-0.95 0.64-1.68 1.53-2.12 2.58-0.43 1.060-0.55 2.21-0.32 3.33 0.22 1.11 0.76 2.14 1.57 2.94 0.8 0.81 1.83 1.35 2.94 1.57 1.12 0.23 2.27 0.11 3.33-0.32 1.050-0.44 1.94-1.17 2.58-2.12 0.63-0.95 0.97-2.060 0.97-3.19 0-1.53-0.61-2.99-1.69-4.070s-2.54-1.68-4.060-1.68zM16 19.75c-0.85 0-1.67-0.25-2.37-0.72s-1.24-1.13-1.56-1.91c-0.32-0.78-0.41-1.63-0.24-2.45 0.16-0.83 0.57-1.59 1.16-2.18s1.35-1 2.18-1.16c0.82-0.17 1.67-0.080 2.45 0.24s1.44 0.86 1.91 1.56c0.47 0.7 0.72 1.52 0.72 2.37-0.010 1.12-0.46 2.2-1.25 3-0.8 0.79-1.88 1.24-3 1.25zM21.5 3.25h-11c-1.8 0-3.51 0.71-4.78 1.97-1.26 1.27-1.97 2.98-1.97 4.78v11c0 1.79 0.71 3.5 1.97 4.77 1.27 1.26 2.98 1.98 4.78 1.98h11c1.79 0 3.5-0.72 4.77-1.98 1.26-1.27 1.98-2.98 1.98-4.77v-11c0-1.8-0.72-3.51-1.98-4.78-1.27-1.26-2.98-1.97-4.77-1.97zM26.75 21c0 1.39-0.56 2.72-1.54 3.71-0.99 0.98-2.32 1.54-3.71 1.54h-11c-1.4 0-2.73-0.56-3.72-1.54-0.98-0.99-1.53-2.32-1.53-3.71v-11c0-1.4 0.55-2.73 1.53-3.72 0.99-0.98 2.32-1.53 3.72-1.53h11c1.39 0 2.72 0.55 3.71 1.53 0.98 0.99 1.54 2.32 1.54 3.72v11zM23.75 9c0 0.24-0.080 0.48-0.22 0.69-0.13 0.2-0.33 0.37-0.56 0.46-0.22 0.090-0.48 0.12-0.72 0.070s-0.46-0.17-0.64-0.34c-0.17-0.18-0.29-0.4-0.34-0.64s-0.020-0.49 0.070-0.72c0.090-0.23 0.26-0.43 0.46-0.56 0.21-0.14 0.45-0.21 0.7-0.21 0.33 0 0.64 0.13 0.88 0.36 0.23 0.24 0.37 0.55 0.37 0.89z"></path>
</svg>
