<!-- Generated by IcoMoon.io -->
<svg version="1.1" xmlns="http://www.w3.org/2000/svg" width="32" height="32" viewBox="0 0 32 32">
<title>medicine-soap</title>
<path fill="#2b7fff" d="M8.733 11.713h-8.86c-0.273 0-0.493 0.207-0.493 0.473v2.833c0 0.26 0.22 0.473 0.493 0.473h0.493v10.86c0 0.26 0.22 0.473 0.493 0.473h6.893c0.267 0 0.487-0.213 0.487-0.473v-10.86h0.493c0.273 0 0.493-0.213 0.493-0.473v-2.833c0-0.267-0.22-0.473-0.493-0.473zM3.32 20.687v-0.947h2.953v-0.94h-2.953v-0.947h3.94v6.14h-3.94v-2.36h0.987v-0.947h-0.987zM7.26 16.907h-4.433c-0.273 0-0.493 0.213-0.493 0.473v7.087c0 0.26 0.22 0.473 0.493 0.473h4.433v0.94h-5.907v-10.387h5.907v1.413zM8.24 14.547h-7.873v-1.893h7.873v1.893z"></path>
<path fill="#2b7fff" d="M15.26 11.8v-3.453c0-0.267-0.22-0.487-0.493-0.487h-0.493v-2.433h0.987v-0.967h-5.42v0.967h3.447v2.433h-0.493c-0.267 0-0.487 0.22-0.487 0.487v3.453c-1.127 0.227-1.973 1.207-1.973 2.38v12.16c0 0.267 0.22 0.487 0.493 0.487h5.907c0.273 0 0.493-0.22 0.493-0.487v-12.16c0-1.173-0.847-2.153-1.967-2.38zM13.287 8.833h0.987v2.92h-0.987v-2.92zM12.793 12.727h1.973c0.813 0 1.473 0.653 1.473 1.453v0.487h-4.92v-0.487c0-0.8 0.66-1.453 1.473-1.453zM16.24 23.907h-4.92v-0.973h1.967v-0.967h-1.967v-6.327h4.92v8.267zM11.32 25.853v-0.973h4.92v0.973h-4.92z"></path>
<path fill="#2b7fff" d="M27.84 11.107h-8.307c-0.253 0-0.46 0.213-0.46 0.48v14.767c0 0.26 0.207 0.473 0.46 0.473h8.307c0.26 0 0.467-0.213 0.467-0.473v-14.767c0-0.267-0.207-0.48-0.467-0.48zM27.38 25.873h-7.38v-13.813h7.38v13.813z"></path>
<path fill="#2b7fff" d="M5.533 20.78h1.233v0.607h-1.233v-0.607z"></path>
<path fill="#2b7fff" d="M14.153 21.987h1.227v1.213h-1.227v-1.213z"></path>
<path fill="#2b7fff" d="M13.84 20.78c1.193 0 2.16-0.947 2.16-2.113s-0.967-2.12-2.16-2.12c-1.187 0-2.153 0.953-2.153 2.12s0.967 2.113 2.153 2.113zM13.84 17.607c0.6 0 1.080 0.473 1.080 1.060 0 0.58-0.48 1.053-1.080 1.053-0.593 0-1.073-0.473-1.073-1.053 0-0.587 0.48-1.060 1.073-1.060z"></path>
<path fill="#2b7fff" d="M22.533 15.947h2.307c0.893 0 1.62-0.68 1.62-1.513s-0.727-1.513-1.62-1.513h-2.307c-0.887 0-1.613 0.68-1.613 1.513s0.727 1.513 1.613 1.513zM25.533 14.433c0 0.353-0.307 0.647-0.693 0.647h-0.687v-1.293h0.687c0.387 0 0.693 0.287 0.693 0.647zM22.533 13.787h0.693v1.293h-0.693c-0.38 0-0.693-0.293-0.693-0.647 0-0.36 0.313-0.647 0.693-0.647z"></path>
<path fill="#2b7fff" d="M22.533 20.78h2.307c0.893 0 1.62-0.813 1.62-1.813s-0.727-1.813-1.62-1.813h-2.307c-0.887 0-1.613 0.813-1.613 1.813s0.727 1.813 1.613 1.813zM25.533 18.967c0 0.427-0.307 0.78-0.693 0.78h-0.687v-1.56h0.687c0.387 0 0.693 0.353 0.693 0.78zM22.533 18.187h0.693v1.56h-0.693c-0.38 0-0.693-0.353-0.693-0.78s0.313-0.78 0.693-0.78z"></path>
<path fill="#2b7fff" d="M22.533 25.013h2.307c0.893 0 1.62-0.813 1.62-1.813s-0.727-1.813-1.62-1.813h-2.307c-0.887 0-1.613 0.813-1.613 1.813s0.727 1.813 1.613 1.813zM25.533 23.2c0 0.427-0.307 0.773-0.693 0.773h-0.687v-1.553h0.687c0.387 0 0.693 0.353 0.693 0.78zM22.533 22.42h0.693v1.553h-0.693c-0.38 0-0.693-0.347-0.693-0.773s0.313-0.78 0.693-0.78z"></path>
</svg>
