<!-- Generated by IcoMoon.io -->
<svg version="1.1" xmlns="http://www.w3.org/2000/svg" width="32" height="32" viewBox="0 0 32 32">
<title>telephone-receiver_icon</title>
<path fill="#011c44" d="M27.65 22.45l-0.17-0.21c-1.38-1.74-2.52-2.64-3.51-2.76-0.85-0.12-1.67 0.47-2.54 1.080l-0.94 0.58c-0.11 0.060-0.22 0.1-0.33 0.13-0.54 0.16-1.92 0.25-2.7-0.47-0.91-0.83-2.32-2.35-3.42-3.68-1.050-1.38-2.2-3.1-2.8-4.18-0.51-0.91-0.090-2.19 0.2-2.67 0.050-0.090 0.13-0.18 0.21-0.27l0.82-0.77c0.020-0.010 0.020-0.020 0.030-0.030s0.020-0.010 0.030-0.020c0.75-0.62 1.52-1.27 1.62-2.1 0.12-0.98-0.48-2.3-1.86-4.030l-0.16-0.22c-0.86-1.090-2.14-2.74-3.99-2.46-0.73 0.1-1.38 0.35-2.050 0.77 0 0.010-0.010 0.010-0.010 0.020-0.010 0-0.010 0-0.020 0.010l-0.93 0.69c-0.010 0-0.020 0.010-0.020 0.020-0.010 0.010-0.020 0.010-0.030 0.020-0.11 0.090-0.22 0.18-0.32 0.28-0.95 0.84-2.99 3.29-1.6 7.81 0.9 2.92 2.76 6.33 5.39 9.88l-0.030 0.020 1.45 1.81 0.020-0.010c2.84 3.37 5.74 5.98 8.4 7.55 1.78 1.060 3.32 1.41 4.6 1.41 1.68 0 2.88-0.61 3.48-1l0.38-0.25c0.040-0.030 0.070-0.070 0.1-0.11l0.83-0.62c0.010-0.010 0.010-0.020 0.020-0.030 0.010 0 0.010 0 0.020 0 0.59-0.54 0.99-1.1 1.27-1.77 0.74-1.7-0.57-3.34-1.44-4.42zM28.11 26.45c-0.22 0.52-0.54 0.96-1 1.39l-1.23 0.92c-1.11 0.72-3.49 1.62-6.94-0.43-2.66-1.58-5.58-4.25-8.46-7.71l-0.78-0.99c-2.71-3.59-4.62-7.040-5.52-9.95-1.17-3.8 0.31-5.83 1.29-6.71 0.1-0.090 0.2-0.18 0.3-0.26v0l0.9-0.67c0.54-0.34 1.050-0.53 1.63-0.62 1.24-0.19 2.24 1.12 2.98 2.070l0.18 0.22c1.53 1.94 1.68 2.86 1.63 3.23-0.050 0.42-0.68 0.96-1.24 1.43l-0.080 0.060c-0.010 0.010-0.010 0.010-0.010 0.010 0 0.010-0.010 0.010-0.010 0.010l-0.85 0.79c-0.010 0-0.010 0.010-0.020 0.020 0 0-0.010 0.010-0.020 0.010-0.13 0.15-0.24 0.3-0.34 0.45-0.47 0.8-0.93 2.46-0.21 3.74 0.62 1.12 1.8 2.89 2.89 4.32 1.14 1.38 2.59 2.95 3.54 3.81 0.7 0.64 1.68 0.86 2.53 0.86 0.46 0 0.87-0.060 1.19-0.15 0.17-0.050 0.34-0.12 0.52-0.21 0.010 0 0.010-0.010 0.020-0.020 0.010 0 0.020 0 0.020 0l0.99-0.62c0.030-0.020 0.050-0.050 0.080-0.080l0.010 0.010c0.61-0.42 1.31-0.91 1.74-0.84 0.39 0.040 1.26 0.42 2.8 2.36l0.18 0.22c0.75 0.94 1.77 2.21 1.29 3.33z"></path>
</svg>
