<svg aria-hidden="true" style="position: absolute; width: 0; height: 0; overflow: hidden;" version="1.1" xmlns="http://www.w3.org/2000/svg" xmlns:xlink="http://www.w3.org/1999/xlink">
<defs>
<symbol id="icon-Arrow-left" viewBox="0 0 42 32">
<path fill="#fff" style="fill: var(--color1, #fff)" d="M4.062 14.769l12.185-12.185c0.96-0.985 0.96-2.511 0-3.495-0.985-0.985-2.511-0.985-3.495 0l-13.908 13.932c-0.985 0.96-0.985 2.511 0 3.471l13.908 13.932c0.985 0.985 2.511 0.985 3.495 0 0.96-0.985 0.96-2.511 0-3.495l-12.185-12.16z"></path>
<path fill="#011c44" style="fill: var(--color2, #011c44)" d="M6.523 12.308l9.723-9.723c0.96-0.985 0.96-2.511 0-3.495-0.985-0.985-2.511-0.985-3.495 0l-13.908 13.932c-0.985 0.96-0.985 2.511 0 3.471l13.908 13.932c0.985 0.985 2.511 0.985 3.495 0 0.96-0.985 0.96-2.511 0-3.495l-9.723-9.698h35.323v-4.923h-35.323z"></path>
</symbol>
<symbol id="icon-Arrow-right" viewBox="0 0 44 32">
<path fill="#fff" style="fill: var(--color1, #fff)" d="M35.889 14.769l-12.185 12.16c-0.96 0.985-0.96 2.511 0 3.495 0.985 0.985 2.511 0.985 3.495 0l13.908-13.932c0.985-0.96 0.985-2.511 0-3.471l-13.908-13.932c-0.985-0.985-2.511-0.985-3.495 0-0.96 0.985-0.96 2.511 0 3.495l12.185 12.185z"></path>
<path fill="#011c44" style="fill: var(--color2, #011c44)" d="M33.428 17.231l-9.723 9.698c-0.96 0.985-0.96 2.511 0 3.495 0.985 0.985 2.511 0.985 3.495 0l13.908-13.932c0.985-0.96 0.985-2.511 0-3.471l-13.908-13.932c-0.985-0.985-2.511-0.985-3.495 0-0.96 0.985-0.96 2.511 0 3.495l9.723 9.723h-35.323v4.923h35.323z"></path>
</symbol>
<symbol id="icon-crown-light" viewBox="0 0 32 32">
<path fill="#2b7fff" style="fill: var(--color3, #2b7fff)" d="M29.687 10.32c-0.253-0.227-0.56-0.373-0.887-0.42-0.327-0.053-0.653 0-0.953 0.147l-6.313 3.080c-0.027 0.020-0.060 0.027-0.087 0.033-0.033 0-0.067 0-0.093-0.013-0.033-0.007-0.060-0.027-0.087-0.047-0.020-0.027-0.040-0.053-0.060-0.080l-3.687-7.287c-0.147-0.307-0.367-0.553-0.64-0.733-0.267-0.173-0.573-0.267-0.88-0.267-0.313 0-0.62 0.093-0.893 0.267-0.267 0.18-0.487 0.427-0.633 0.733l-3.687 7.287c-0.020 0.027-0.040 0.053-0.060 0.080-0.027 0.020-0.053 0.040-0.087 0.047-0.027 0.013-0.060 0.013-0.093 0.013-0.027-0.007-0.060-0.013-0.087-0.033l-6.313-3.080c-0.3-0.147-0.627-0.2-0.953-0.153s-0.633 0.193-0.88 0.42c-0.253 0.233-0.447 0.533-0.547 0.873-0.107 0.347-0.12 0.713-0.047 1.060l3.187 14.893c0.053 0.253 0.153 0.487 0.293 0.693 0.14 0.213 0.32 0.387 0.52 0.513 0.267 0.18 0.573 0.28 0.887 0.28 0.16-0.007 0.32-0.027 0.48-0.073 5.827-1.773 11.98-1.773 17.807-0.013 0.233 0.073 0.467 0.093 0.707 0.060 0.233-0.027 0.46-0.113 0.66-0.247 0.207-0.127 0.387-0.307 0.527-0.513s0.24-0.447 0.3-0.7l3.173-14.893c0.080-0.347 0.067-0.713-0.033-1.053-0.107-0.34-0.293-0.64-0.54-0.873zM28.807 11.86l-3.187 14.893c-0.013 0.073-0.053 0.133-0.113 0.18-0.060 0.033-0.133 0.040-0.2 0.027-6.093-1.853-12.527-1.853-18.62 0-0.033 0.013-0.067 0.013-0.107 0.007-0.033 0-0.067-0.013-0.093-0.033s-0.053-0.047-0.073-0.080c-0.020-0.027-0.033-0.060-0.040-0.1l-3.187-14.893c-0.007-0.040-0.007-0.080 0-0.12s0.027-0.080 0.053-0.113c0.020-0.033 0.053-0.060 0.087-0.080 0.033-0.013 0.067-0.027 0.107-0.027l0.1 0.027 6.327 3.093c0.4 0.2 0.847 0.22 1.267 0.067 0.413-0.147 0.76-0.467 0.967-0.893l3.693-7.287c0.020-0.040 0.047-0.080 0.087-0.107 0.033-0.020 0.080-0.033 0.127-0.033 0.040 0 0.087 0.013 0.12 0.033 0.040 0.027 0.067 0.067 0.087 0.107l3.687 7.287c0.213 0.427 0.56 0.747 0.973 0.893 0.413 0.153 0.867 0.133 1.267-0.067l6.327-3.093c0.040-0.020 0.087-0.027 0.133-0.020s0.093 0.027 0.127 0.060c0.040 0.033 0.067 0.073 0.080 0.127 0.020 0.047 0.020 0.1 0.007 0.147zM20.747 22.313c-0.020 0.2-0.107 0.393-0.247 0.527-0.14 0.14-0.32 0.213-0.5 0.213h-0.080c-2.607-0.287-5.24-0.287-7.847 0-0.2 0.027-0.393-0.040-0.553-0.173-0.153-0.14-0.253-0.333-0.273-0.553s0.040-0.433 0.167-0.607c0.127-0.167 0.313-0.273 0.507-0.3 2.713-0.32 5.44-0.32 8.153 0 0.193 0.027 0.373 0.133 0.5 0.3 0.127 0.16 0.187 0.38 0.173 0.593z"></path>
</symbol>
<symbol id="icon-facebook-icon" viewBox="0 0 32 32">
<path fill="#011c44" style="fill: var(--color2, #011c44)" d="M23.98 1.62c-1.34-0.14-2.69-0.21-4.050-0.21-4.48 0-7.27 2.86-7.27 7.46v3.12h-3.77c-0.17 0-0.34 0.070-0.47 0.19-0.12 0.13-0.19 0.3-0.19 0.48v5.13c0 0.18 0.070 0.35 0.19 0.47 0.13 0.13 0.3 0.2 0.47 0.2h3.77v10.29c0 0.18 0.070 0.35 0.2 0.47 0.12 0.13 0.29 0.2 0.47 0.2h5.3c0.18 0 0.35-0.070 0.47-0.2 0.13-0.12 0.2-0.29 0.2-0.47v-10.29h3.75c0.17 0 0.32-0.060 0.44-0.17 0.13-0.11 0.2-0.25 0.23-0.41l0.66-5.14c0.010-0.090 0-0.19-0.030-0.28-0.020-0.090-0.070-0.17-0.13-0.24s-0.14-0.13-0.23-0.17c-0.080-0.040-0.18-0.060-0.27-0.060h-4.42v-2.61c0-1.3 0.26-1.84 1.88-1.84h2.71c0.18 0 0.35-0.070 0.48-0.19 0.12-0.13 0.19-0.3 0.19-0.47v-4.6c0-0.16-0.060-0.31-0.16-0.44-0.11-0.12-0.26-0.2-0.42-0.22zM23.23 6.21h-2.050c-2.88 0-3.21 1.81-3.21 3.17v3.28c0 0.17 0.070 0.34 0.19 0.47 0.13 0.12 0.29 0.19 0.47 0.19h4.33l-0.49 3.8h-3.84c-0.17 0-0.34 0.070-0.47 0.2-0.12 0.12-0.19 0.29-0.19 0.47v10.29h-3.97v-10.29c0-0.18-0.080-0.35-0.2-0.47-0.13-0.13-0.29-0.2-0.47-0.2h-3.77v-3.8h3.77c0.18 0 0.34-0.070 0.47-0.19 0.12-0.13 0.2-0.3 0.2-0.47v-3.79c0-3.83 2.22-6.12 5.93-6.12 1.35 0 2.56 0.070 3.3 0.14v3.32z"></path>
</symbol>
<symbol id="icon-fcebook-icon-footer" viewBox="0 0 32 32">
<path fill="#fff" style="fill: var(--color1, #fff)" d="M23.985 2.126c-1.349-0.145-2.697-0.213-4.053-0.206-4.48 0-7.269 2.85-7.269 7.451v3.116h-3.764c-0.183 0-0.35 0.076-0.472 0.198-0.13 0.122-0.198 0.297-0.198 0.472v5.135c0 0.175 0.069 0.343 0.198 0.472 0.122 0.122 0.29 0.19 0.472 0.19h3.764v10.293c0 0.175 0.069 0.35 0.198 0.472 0.122 0.122 0.29 0.198 0.472 0.198h5.303c0.175 0 0.343-0.076 0.472-0.198 0.122-0.122 0.19-0.297 0.19-0.472v-10.293h3.756c0.16 0 0.32-0.061 0.442-0.168s0.198-0.251 0.221-0.411l0.663-5.135c0.008-0.091 0-0.19-0.023-0.282-0.030-0.084-0.076-0.168-0.137-0.244-0.061-0.069-0.145-0.13-0.229-0.168s-0.183-0.061-0.274-0.061h-4.419v-2.606c0-1.295 0.259-1.836 1.882-1.836h2.712c0.183 0 0.35-0.069 0.472-0.198 0.13-0.122 0.198-0.29 0.198-0.472v-4.587c0-0.168-0.061-0.32-0.168-0.442s-0.251-0.198-0.411-0.221zM23.23 6.712h-2.057c-2.872 0-3.208 1.806-3.208 3.17v3.276c0 0.175 0.069 0.35 0.198 0.472 0.122 0.122 0.29 0.198 0.465 0.198h4.335l-0.495 3.794h-3.832c-0.183 0-0.35 0.076-0.472 0.198-0.13 0.122-0.198 0.297-0.198 0.472v10.293h-3.97v-10.293c0-0.175-0.069-0.35-0.198-0.472-0.122-0.122-0.29-0.198-0.465-0.198h-3.771v-3.794h3.771c0.175 0 0.343-0.076 0.465-0.198 0.13-0.122 0.198-0.297 0.198-0.472v-3.787c0-3.832 2.217-6.118 5.935-6.118 1.349 0 2.56 0.069 3.299 0.137v3.322z"></path>
</symbol>
<symbol id="icon-instagram-icon" viewBox="0 0 32 32">
<path fill="#011c44" style="fill: var(--color2, #011c44)" d="M16 9.75c-1.14 0-2.25 0.33-3.2 0.96-0.95 0.64-1.68 1.53-2.12 2.58-0.43 1.060-0.55 2.21-0.32 3.33 0.22 1.11 0.76 2.14 1.57 2.94 0.8 0.81 1.83 1.35 2.94 1.57 1.12 0.23 2.27 0.11 3.33-0.32 1.050-0.44 1.94-1.17 2.58-2.12 0.63-0.95 0.97-2.060 0.97-3.19 0-1.53-0.61-2.99-1.69-4.070s-2.54-1.68-4.060-1.68zM16 19.75c-0.85 0-1.67-0.25-2.37-0.72s-1.24-1.13-1.56-1.91c-0.32-0.78-0.41-1.63-0.24-2.45 0.16-0.83 0.57-1.59 1.16-2.18s1.35-1 2.18-1.16c0.82-0.17 1.67-0.080 2.45 0.24s1.44 0.86 1.91 1.56c0.47 0.7 0.72 1.52 0.72 2.37-0.010 1.12-0.46 2.2-1.25 3-0.8 0.79-1.88 1.24-3 1.25zM21.5 3.25h-11c-1.8 0-3.51 0.71-4.78 1.97-1.26 1.27-1.97 2.98-1.97 4.78v11c0 1.79 0.71 3.5 1.97 4.77 1.27 1.26 2.98 1.98 4.78 1.98h11c1.79 0 3.5-0.72 4.77-1.98 1.26-1.27 1.98-2.98 1.98-4.77v-11c0-1.8-0.72-3.51-1.98-4.78-1.27-1.26-2.98-1.97-4.77-1.97zM26.75 21c0 1.39-0.56 2.72-1.54 3.71-0.99 0.98-2.32 1.54-3.71 1.54h-11c-1.4 0-2.73-0.56-3.72-1.54-0.98-0.99-1.53-2.32-1.53-3.71v-11c0-1.4 0.55-2.73 1.53-3.72 0.99-0.98 2.32-1.53 3.72-1.53h11c1.39 0 2.72 0.55 3.71 1.53 0.98 0.99 1.54 2.32 1.54 3.72v11zM23.75 9c0 0.24-0.080 0.48-0.22 0.69-0.13 0.2-0.33 0.37-0.56 0.46-0.22 0.090-0.48 0.12-0.72 0.070s-0.46-0.17-0.64-0.34c-0.17-0.18-0.29-0.4-0.34-0.64s-0.020-0.49 0.070-0.72c0.090-0.23 0.26-0.43 0.46-0.56 0.21-0.14 0.45-0.21 0.7-0.21 0.33 0 0.64 0.13 0.88 0.36 0.23 0.24 0.37 0.55 0.37 0.89z"></path>
</symbol>
<symbol id="icon-instagram-icon-footer" viewBox="0 0 32 32">
<path fill="#fff" style="fill: var(--color1, #fff)" d="M16 10.248c-1.143 0-2.255 0.335-3.2 0.968s-1.684 1.531-2.118 2.583c-0.434 1.051-0.549 2.202-0.328 3.322 0.221 1.112 0.77 2.141 1.577 2.941 0.8 0.808 1.829 1.356 2.941 1.577 1.12 0.221 2.27 0.107 3.322-0.328s1.95-1.173 2.583-2.118c0.632-0.945 0.968-2.057 0.968-3.192 0-1.531-0.602-2.994-1.684-4.069-1.074-1.082-2.537-1.684-4.061-1.684zM16 20.244c-0.846 0-1.669-0.244-2.362-0.716-0.701-0.465-1.25-1.128-1.57-1.905s-0.404-1.63-0.244-2.453c0.168-0.83 0.571-1.585 1.166-2.179s1.349-0.998 2.179-1.166c0.823-0.16 1.676-0.076 2.453 0.244s1.44 0.869 1.905 1.57c0.472 0.693 0.716 1.516 0.716 2.362 0 1.12-0.45 2.202-1.25 2.994-0.792 0.8-1.874 1.25-2.994 1.25zM21.493 3.749h-10.994c-1.79 0-3.512 0.709-4.777 1.973s-1.973 2.987-1.973 4.777v10.994c0 1.79 0.709 3.512 1.973 4.777s2.987 1.973 4.777 1.973h10.994c1.79 0 3.512-0.709 4.777-1.973s1.973-2.987 1.973-4.777v-10.994c0-1.79-0.709-3.512-1.973-4.777s-2.987-1.973-4.777-1.973zM26.743 21.493c0 1.394-0.549 2.728-1.531 3.718-0.99 0.983-2.324 1.531-3.718 1.531h-10.994c-1.394 0-2.728-0.549-3.718-1.531-0.983-0.99-1.531-2.324-1.531-3.718v-10.994c0-1.394 0.549-2.728 1.531-3.718 0.99-0.983 2.324-1.531 3.718-1.531h10.994c1.394 0 2.728 0.549 3.718 1.531 0.983 0.99 1.531 2.324 1.531 3.718v10.994zM23.749 9.493c0 0.251-0.076 0.495-0.213 0.701s-0.335 0.366-0.564 0.457c-0.229 0.091-0.48 0.122-0.716 0.069-0.244-0.046-0.465-0.168-0.64-0.343s-0.297-0.396-0.343-0.64c-0.053-0.236-0.023-0.488 0.069-0.716s0.259-0.427 0.457-0.564c0.206-0.137 0.45-0.213 0.701-0.213 0.328 0 0.648 0.137 0.884 0.366 0.229 0.236 0.366 0.556 0.366 0.884z"></path>
</symbol>
<symbol id="icon-logo" viewBox="0 0 63 32">
<path fill="#2b7fff" style="fill: var(--color3, #2b7fff)" d="M1.332 0.624h5.004c1.18 0 2.087 0.089 2.721 0.266 0.647 0.165 1.104 0.438 1.37 0.818 0.266 0.368 0.4 0.888 0.4 1.56v1.522c0 0.343-0.139 0.666-0.419 0.97-0.266 0.304-0.584 0.514-0.951 0.628v0.095c0.482 0.051 0.92 0.26 1.313 0.628 0.406 0.355 0.609 0.755 0.609 1.199v1.903c0 1.002-0.4 1.712-1.199 2.131s-2.036 0.628-3.71 0.628h-5.137v-12.349zM6.336 5.648c0.469 0 0.818-0.038 1.046-0.114s0.381-0.197 0.457-0.362c0.089-0.178 0.133-0.431 0.133-0.761v-0.609c0-0.292-0.038-0.507-0.114-0.647-0.076-0.152-0.235-0.26-0.476-0.323-0.228-0.063-0.596-0.095-1.104-0.095h-1.979v2.911h2.036zM6.412 10.861c0.723 0 1.237-0.082 1.541-0.247s0.457-0.431 0.457-0.799v-0.989c0-0.457-0.12-0.78-0.361-0.97-0.228-0.19-0.641-0.285-1.237-0.285h-2.512v3.292h2.112zM17.919 13.163c-3.26 0-4.89-0.996-4.89-2.987v-3.311c0-1.154 0.368-1.992 1.104-2.512 0.748-0.52 1.896-0.78 3.444-0.78 1.459 0 2.524 0.254 3.197 0.761 0.685 0.495 1.027 1.338 1.027 2.531v2.245h-5.974v0.837c0 0.533 0.19 0.913 0.571 1.142s1.066 0.342 2.055 0.342c0.913 0 1.941-0.133 3.082-0.4v1.77c-1.129 0.241-2.334 0.361-3.615 0.361zM19.156 7.531v-1.332c0-0.304-0.127-0.533-0.381-0.685-0.241-0.152-0.653-0.228-1.237-0.228-0.672 0-1.123 0.076-1.351 0.228-0.241 0.165-0.361 0.393-0.361 0.685v1.332h3.33zM26.53 13.163c-0.863 0-1.509-0.076-1.941-0.228-0.419-0.165-0.717-0.45-0.894-0.856-0.165-0.419-0.247-1.040-0.247-1.865 0-0.736 0.089-1.313 0.266-1.731 0.19-0.419 0.488-0.717 0.894-0.894 0.419-0.19 0.989-0.285 1.712-0.285h3.12v-0.628c0-0.393-0.057-0.685-0.171-0.875-0.101-0.19-0.298-0.323-0.59-0.4-0.279-0.076-0.704-0.114-1.275-0.114-0.786 0-1.865 0.076-3.235 0.228v-1.75c1.002-0.127 2.175-0.19 3.52-0.19 1.18 0 2.087 0.089 2.721 0.266 0.647 0.178 1.11 0.482 1.389 0.913s0.419 1.059 0.419 1.884v6.336h-2.721v-0.837c-0.216 0.368-0.507 0.628-0.875 0.78-0.368 0.165-1.066 0.247-2.093 0.247zM27.615 11.432c0.558 0 0.958-0.019 1.199-0.057 0.178-0.025 0.298-0.063 0.361-0.114 0.076-0.051 0.14-0.133 0.19-0.247 0.051-0.089 0.076-0.222 0.076-0.4v-1.789h-1.903c-0.431 0-0.736 0.032-0.913 0.095-0.178 0.051-0.298 0.165-0.361 0.342-0.063 0.165-0.095 0.463-0.095 0.894 0 0.419 0.032 0.71 0.095 0.875s0.184 0.273 0.361 0.323c0.19 0.051 0.52 0.076 0.989 0.076zM37.86 13.163c-1.18 0-2.011-0.209-2.493-0.628-0.469-0.431-0.704-1.104-0.704-2.017v-6.755h2.778v6.374c0 0.355 0.032 0.622 0.095 0.799 0.076 0.178 0.216 0.304 0.419 0.381 0.216 0.076 0.539 0.114 0.97 0.114 0.545 0 0.945-0.032 1.199-0.095 0.254-0.076 0.425-0.203 0.514-0.381s0.133-0.45 0.133-0.818v-6.374h2.778v9.209h-2.74v-1.123c-0.203 0.875-1.186 1.313-2.949 1.313zM50.584 13.163c-0.469 0-0.863-0.019-1.18-0.057s-0.634-0.114-0.951-0.228c-0.355-0.114-0.647-0.273-0.875-0.476-0.216-0.203-0.393-0.482-0.533-0.837-0.152-0.368-0.228-0.793-0.228-1.275v-4.814h-1.865v-1.712h1.865v-2.664h2.778v2.664h2.531v1.712h-2.531v4.338c0 0.444 0.038 0.78 0.114 1.008 0.076 0.216 0.222 0.374 0.438 0.476 0.216 0.089 0.545 0.133 0.989 0.133 0.178 0 0.507-0.032 0.989-0.095v1.731c-0.596 0.063-1.11 0.095-1.541 0.095zM56.335 12.897l-3.672-9.133h3.025l2.074 6.507 1.884-6.507h2.873l-5.042 13.167h-2.816l1.674-4.034zM0.761 29.328l6.431-8.429h-6.241v-2.112h9.894v1.789l-6.431 8.429h6.545v2.131h-10.198v-1.808zM17.282 31.325c-0.571 0-1.040-0.019-1.408-0.057s-0.761-0.114-1.18-0.228c-0.457-0.127-0.824-0.304-1.104-0.533-0.279-0.241-0.514-0.577-0.704-1.008-0.19-0.419-0.285-0.926-0.285-1.522v-2.721c0-0.609 0.095-1.142 0.285-1.598s0.438-0.812 0.742-1.066c0.266-0.216 0.615-0.393 1.046-0.533 0.444-0.152 0.875-0.247 1.294-0.285 0.482-0.025 0.92-0.038 1.313-0.038 0.584 0 1.046 0.019 1.389 0.057 0.355 0.025 0.742 0.101 1.161 0.228 0.457 0.14 0.824 0.33 1.104 0.571 0.292 0.241 0.539 0.584 0.742 1.027 0.19 0.457 0.285 1.002 0.285 1.636v2.721c0 0.571-0.095 1.072-0.285 1.503-0.178 0.431-0.412 0.767-0.704 1.008-0.254 0.216-0.603 0.393-1.046 0.533-0.431 0.127-0.856 0.209-1.275 0.247-0.381 0.038-0.837 0.057-1.37 0.057zM17.282 29.594c0.52 0 0.913-0.038 1.18-0.114 0.266-0.089 0.45-0.222 0.552-0.4 0.114-0.178 0.171-0.438 0.171-0.78v-3.482c0-0.507-0.133-0.863-0.4-1.066s-0.767-0.304-1.503-0.304c-0.736 0-1.237 0.101-1.503 0.304s-0.4 0.558-0.4 1.066v3.482c0 0.343 0.051 0.603 0.152 0.78 0.114 0.178 0.304 0.311 0.571 0.4 0.266 0.076 0.66 0.114 1.18 0.114zM24.128 21.926h2.74v1.123c0.216-0.875 1.199-1.313 2.949-1.313 1.18 0 2.004 0.216 2.474 0.647 0.482 0.419 0.723 1.085 0.723 1.998v6.755h-2.778v-6.393c0-0.355-0.038-0.622-0.114-0.799-0.063-0.178-0.203-0.304-0.419-0.381-0.203-0.076-0.52-0.114-0.951-0.114-0.545 0-0.945 0.038-1.199 0.114-0.254 0.063-0.425 0.184-0.514 0.361s-0.133 0.45-0.133 0.818v6.393h-2.778v-9.209zM40.068 31.325c-3.26 0-4.89-0.996-4.89-2.987v-3.311c0-1.154 0.368-1.992 1.104-2.512 0.748-0.52 1.896-0.78 3.444-0.78 1.459 0 2.524 0.254 3.197 0.761 0.685 0.495 1.027 1.338 1.027 2.531v2.245h-5.974v0.837c0 0.533 0.19 0.913 0.571 1.142s1.066 0.343 2.055 0.343c0.913 0 1.941-0.133 3.082-0.4v1.77c-1.129 0.241-2.334 0.361-3.615 0.361zM41.304 25.693v-1.332c0-0.304-0.127-0.533-0.381-0.685-0.241-0.152-0.653-0.228-1.237-0.228-0.672 0-1.123 0.076-1.351 0.228-0.241 0.165-0.361 0.393-0.361 0.685v1.332h3.33z"></path>
</symbol>
<symbol id="icon-medicine-soap" viewBox="0 0 32 32">
<path fill="#2b7fff" style="fill: var(--color3, #2b7fff)" d="M8.733 11.713h-8.86c-0.273 0-0.493 0.207-0.493 0.473v2.833c0 0.26 0.22 0.473 0.493 0.473h0.493v10.86c0 0.26 0.22 0.473 0.493 0.473h6.893c0.267 0 0.487-0.213 0.487-0.473v-10.86h0.493c0.273 0 0.493-0.213 0.493-0.473v-2.833c0-0.267-0.22-0.473-0.493-0.473zM3.32 20.687v-0.947h2.953v-0.94h-2.953v-0.947h3.94v6.14h-3.94v-2.36h0.987v-0.947h-0.987zM7.26 16.907h-4.433c-0.273 0-0.493 0.213-0.493 0.473v7.087c0 0.26 0.22 0.473 0.493 0.473h4.433v0.94h-5.907v-10.387h5.907v1.413zM8.24 14.547h-7.873v-1.893h7.873v1.893z"></path>
<path fill="#2b7fff" style="fill: var(--color3, #2b7fff)" d="M15.26 11.8v-3.453c0-0.267-0.22-0.487-0.493-0.487h-0.493v-2.433h0.987v-0.967h-5.42v0.967h3.447v2.433h-0.493c-0.267 0-0.487 0.22-0.487 0.487v3.453c-1.127 0.227-1.973 1.207-1.973 2.38v12.16c0 0.267 0.22 0.487 0.493 0.487h5.907c0.273 0 0.493-0.22 0.493-0.487v-12.16c0-1.173-0.847-2.153-1.967-2.38zM13.287 8.833h0.987v2.92h-0.987v-2.92zM12.793 12.727h1.973c0.813 0 1.473 0.653 1.473 1.453v0.487h-4.92v-0.487c0-0.8 0.66-1.453 1.473-1.453zM16.24 23.907h-4.92v-0.973h1.967v-0.967h-1.967v-6.327h4.92v8.267zM11.32 25.853v-0.973h4.92v0.973h-4.92z"></path>
<path fill="#2b7fff" style="fill: var(--color3, #2b7fff)" d="M27.84 11.107h-8.307c-0.253 0-0.46 0.213-0.46 0.48v14.767c0 0.26 0.207 0.473 0.46 0.473h8.307c0.26 0 0.467-0.213 0.467-0.473v-14.767c0-0.267-0.207-0.48-0.467-0.48zM27.38 25.873h-7.38v-13.813h7.38v13.813z"></path>
<path fill="#2b7fff" style="fill: var(--color3, #2b7fff)" d="M5.533 20.78h1.233v0.607h-1.233v-0.607z"></path>
<path fill="#2b7fff" style="fill: var(--color3, #2b7fff)" d="M14.153 21.987h1.227v1.213h-1.227v-1.213z"></path>
<path fill="#2b7fff" style="fill: var(--color3, #2b7fff)" d="M13.84 20.78c1.193 0 2.16-0.947 2.16-2.113s-0.967-2.12-2.16-2.12c-1.187 0-2.153 0.953-2.153 2.12s0.967 2.113 2.153 2.113zM13.84 17.607c0.6 0 1.080 0.473 1.080 1.060 0 0.58-0.48 1.053-1.080 1.053-0.593 0-1.073-0.473-1.073-1.053 0-0.587 0.48-1.060 1.073-1.060z"></path>
<path fill="#2b7fff" style="fill: var(--color3, #2b7fff)" d="M22.533 15.947h2.307c0.893 0 1.62-0.68 1.62-1.513s-0.727-1.513-1.62-1.513h-2.307c-0.887 0-1.613 0.68-1.613 1.513s0.727 1.513 1.613 1.513zM25.533 14.433c0 0.353-0.307 0.647-0.693 0.647h-0.687v-1.293h0.687c0.387 0 0.693 0.287 0.693 0.647zM22.533 13.787h0.693v1.293h-0.693c-0.38 0-0.693-0.293-0.693-0.647 0-0.36 0.313-0.647 0.693-0.647z"></path>
<path fill="#2b7fff" style="fill: var(--color3, #2b7fff)" d="M22.533 20.78h2.307c0.893 0 1.62-0.813 1.62-1.813s-0.727-1.813-1.62-1.813h-2.307c-0.887 0-1.613 0.813-1.613 1.813s0.727 1.813 1.613 1.813zM25.533 18.967c0 0.427-0.307 0.78-0.693 0.78h-0.687v-1.56h0.687c0.387 0 0.693 0.353 0.693 0.78zM22.533 18.187h0.693v1.56h-0.693c-0.38 0-0.693-0.353-0.693-0.78s0.313-0.78 0.693-0.78z"></path>
<path fill="#2b7fff" style="fill: var(--color3, #2b7fff)" d="M22.533 25.013h2.307c0.893 0 1.62-0.813 1.62-1.813s-0.727-1.813-1.62-1.813h-2.307c-0.887 0-1.613 0.813-1.613 1.813s0.727 1.813 1.613 1.813zM25.533 23.2c0 0.427-0.307 0.773-0.693 0.773h-0.687v-1.553h0.687c0.387 0 0.693 0.353 0.693 0.78zM22.533 22.42h0.693v1.553h-0.693c-0.38 0-0.693-0.347-0.693-0.773s0.313-0.78 0.693-0.78z"></path>
</symbol>
<symbol id="icon-nuclear-icon" viewBox="0 0 32 32">
<path fill="#2b7fff" style="fill: var(--color3, #2b7fff)" d="M16.051 1.194c-0.903 0-1.743 0.411-2.457 1.086-0.72 0.669-1.331 1.606-1.84 2.737-0.109 0.234-0.211 0.486-0.309 0.737-0.263-0.040-0.531-0.074-0.794-0.103-0.309-0.029-0.611-0.051-0.903-0.057-0.88-0.023-1.686 0.069-2.389 0.28-0.943 0.286-1.714 0.811-2.166 1.589-0.451 0.783-0.514 1.714-0.291 2.669s0.726 1.954 1.451 2.966c0.149 0.211 0.314 0.423 0.486 0.634-0.171 0.206-0.331 0.417-0.486 0.634-0.726 1.011-1.229 2.006-1.451 2.966-0.223 0.954-0.16 1.886 0.291 2.669 0.451 0.777 1.223 1.303 2.166 1.589 0.937 0.28 2.057 0.349 3.291 0.223 0.257-0.029 0.526-0.063 0.794-0.103 0.091 0.251 0.194 0.497 0.309 0.737 0.509 1.131 1.12 2.069 1.84 2.743 0.714 0.669 1.554 1.080 2.457 1.080 0.897 0 1.737-0.411 2.457-1.080 0.714-0.674 1.326-1.611 1.84-2.743 0.109-0.24 0.211-0.486 0.309-0.737 0.269 0.040 0.531 0.074 0.789 0.103 1.24 0.126 2.354 0.057 3.291-0.223 0.943-0.286 1.72-0.811 2.166-1.589 0.451-0.783 0.514-1.714 0.291-2.669s-0.726-1.954-1.446-2.966c-0.16-0.217-0.32-0.429-0.486-0.634 0.166-0.206 0.326-0.417 0.486-0.634 0.72-1.011 1.229-2.011 1.451-2.966s0.154-1.886-0.297-2.669c-0.446-0.777-1.223-1.303-2.16-1.589-0.709-0.211-1.509-0.303-2.389-0.28-0.297 0.006-0.594 0.029-0.909 0.057-0.257 0.023-0.52 0.063-0.789 0.103-0.097-0.251-0.2-0.497-0.309-0.737-0.514-1.131-1.126-2.069-1.84-2.737-0.72-0.674-1.56-1.086-2.457-1.086v0zM16.051 2.2c0.6 0 1.189 0.263 1.771 0.811 0.583 0.543 1.137 1.371 1.611 2.417 0.080 0.171 0.149 0.343 0.217 0.514-1.143 0.257-2.36 0.646-3.6 1.171-1.246-0.52-2.457-0.914-3.606-1.171 0.069-0.177 0.143-0.349 0.217-0.514 0.474-1.046 1.029-1.874 1.611-2.423 0.589-0.543 1.177-0.806 1.777-0.806v0zM9.429 6.594c0.097 0 0.194 0 0.297 0 0.263 0.006 0.537 0.023 0.823 0.051 0.183 0.017 0.371 0.046 0.56 0.069-0.354 1.126-0.623 2.371-0.789 3.709-1.074 0.811-2.023 1.669-2.817 2.537-0.114-0.149-0.229-0.297-0.337-0.451-0.669-0.931-1.109-1.823-1.291-2.606-0.183-0.777-0.114-1.417 0.189-1.937 0.297-0.52 0.823-0.897 1.583-1.131 0.503-0.154 1.109-0.234 1.783-0.24v0zM22.669 6.594c0.68 0.006 1.28 0.086 1.783 0.24 0.766 0.234 1.286 0.611 1.589 1.131 0.297 0.52 0.366 1.16 0.183 1.937-0.183 0.783-0.623 1.674-1.291 2.606-0.109 0.154-0.223 0.303-0.337 0.451-0.794-0.869-1.743-1.72-2.811-2.537-0.171-1.337-0.44-2.583-0.794-3.709 0.189-0.023 0.377-0.051 0.56-0.069 0.274-0.029 0.549-0.046 0.829-0.051 0.097 0 0.194 0 0.291 0v0zM19.994 6.897c0.269 0.829 0.486 1.737 0.651 2.714-0.531-0.36-1.074-0.697-1.629-1.017s-1.126-0.623-1.697-0.903c0.926-0.349 1.829-0.611 2.674-0.794v0zM12.103 6.897c0.851 0.183 1.749 0.446 2.68 0.794-0.577 0.28-1.143 0.583-1.703 0.903-0.554 0.32-1.097 0.657-1.629 1.017 0.166-0.977 0.389-1.886 0.651-2.714zM16.051 8.206c0.811 0.36 1.64 0.777 2.463 1.251 0.823 0.48 1.6 0.989 2.32 1.514 0.097 0.886 0.149 1.806 0.149 2.76s-0.051 1.874-0.149 2.76c-0.72 0.526-1.491 1.034-2.32 1.509-0.823 0.48-1.651 0.897-2.463 1.257-0.817-0.36-1.646-0.777-2.469-1.257-0.823-0.474-1.6-0.983-2.32-1.509-0.091-0.88-0.149-1.806-0.149-2.76s0.057-1.874 0.149-2.76c0.72-0.526 1.497-1.034 2.32-1.514 0.823-0.474 1.651-0.891 2.469-1.251v0zM16.114 9.714l-2.863 1.766 2.863 1.771 2.869-1.771-2.869-1.766zM10.183 11.811c-0.046 0.64-0.069 1.28-0.069 1.92 0 0.651 0.023 1.297 0.069 1.92-0.76-0.629-1.446-1.274-2.029-1.92 0.583-0.646 1.263-1.291 2.029-1.92zM21.914 11.811c0.766 0.629 1.446 1.274 2.029 1.92-0.583 0.646-1.263 1.291-2.029 1.92 0.046-0.64 0.069-1.28 0.069-1.92 0-0.651-0.023-1.297-0.069-1.92v0zM12.606 12.257v3.497l3.011 1.857v-3.491l-3.011-1.863zM19.629 12.263l-3.011 1.857v3.491l3.011-1.857v-3.491zM7.503 14.503c0.794 0.869 1.743 1.72 2.817 2.537 0.166 1.337 0.434 2.583 0.789 3.709-0.189 0.023-0.377 0.046-0.56 0.069-1.137 0.114-2.131 0.040-2.897-0.189-0.766-0.234-1.291-0.611-1.589-1.131-0.303-0.52-0.366-1.16-0.189-1.937 0.183-0.783 0.623-1.68 1.291-2.611 0.109-0.149 0.223-0.297 0.337-0.446zM24.594 14.503c0.12 0.149 0.234 0.297 0.337 0.446 0.669 0.931 1.109 1.829 1.291 2.611 0.183 0.777 0.114 1.417-0.183 1.937-0.303 0.52-0.823 0.897-1.589 1.131-0.766 0.229-1.76 0.297-2.903 0.189-0.189-0.023-0.371-0.046-0.56-0.069 0.354-1.126 0.623-2.371 0.794-3.709 1.069-0.817 2.017-1.669 2.811-2.537v0zM20.646 17.851c-0.166 0.977-0.383 1.886-0.651 2.714-0.846-0.183-1.749-0.446-2.674-0.794 0.577-0.28 1.143-0.583 1.697-0.903s1.097-0.657 1.629-1.017v0zM11.451 17.851c0.531 0.36 1.074 0.697 1.629 1.017 0.56 0.32 1.126 0.623 1.703 0.903-0.931 0.349-1.829 0.611-2.68 0.794-0.269-0.829-0.486-1.737-0.651-2.714zM16.080 17.897l0.034 0.023 0.040-0.023h-0.074zM16.051 20.349c1.24 0.52 2.457 0.914 3.6 1.171-0.069 0.171-0.137 0.343-0.217 0.514-0.474 1.046-1.029 1.874-1.611 2.423-0.583 0.543-1.171 0.806-1.771 0.806s-1.189-0.263-1.777-0.806c-0.583-0.549-1.137-1.377-1.611-2.423-0.074-0.171-0.149-0.343-0.217-0.514 1.149-0.257 2.36-0.651 3.606-1.171v0z"></path>
</symbol>
<symbol id="icon-telephone-receiver_icon" viewBox="0 0 32 32">
<path fill="#011c44" style="fill: var(--color2, #011c44)" d="M27.65 22.45l-0.17-0.21c-1.38-1.74-2.52-2.64-3.51-2.76-0.85-0.12-1.67 0.47-2.54 1.080l-0.94 0.58c-0.11 0.060-0.22 0.1-0.33 0.13-0.54 0.16-1.92 0.25-2.7-0.47-0.91-0.83-2.32-2.35-3.42-3.68-1.050-1.38-2.2-3.1-2.8-4.18-0.51-0.91-0.090-2.19 0.2-2.67 0.050-0.090 0.13-0.18 0.21-0.27l0.82-0.77c0.020-0.010 0.020-0.020 0.030-0.030s0.020-0.010 0.030-0.020c0.75-0.62 1.52-1.27 1.62-2.1 0.12-0.98-0.48-2.3-1.86-4.030l-0.16-0.22c-0.86-1.090-2.14-2.74-3.99-2.46-0.73 0.1-1.38 0.35-2.050 0.77 0 0.010-0.010 0.010-0.010 0.020-0.010 0-0.010 0-0.020 0.010l-0.93 0.69c-0.010 0-0.020 0.010-0.020 0.020-0.010 0.010-0.020 0.010-0.030 0.020-0.11 0.090-0.22 0.18-0.32 0.28-0.95 0.84-2.99 3.29-1.6 7.81 0.9 2.92 2.76 6.33 5.39 9.88l-0.030 0.020 1.45 1.81 0.020-0.010c2.84 3.37 5.74 5.98 8.4 7.55 1.78 1.060 3.32 1.41 4.6 1.41 1.68 0 2.88-0.61 3.48-1l0.38-0.25c0.040-0.030 0.070-0.070 0.1-0.11l0.83-0.62c0.010-0.010 0.010-0.020 0.020-0.030 0.010 0 0.010 0 0.020 0 0.59-0.54 0.99-1.1 1.27-1.77 0.74-1.7-0.57-3.34-1.44-4.42zM28.11 26.45c-0.22 0.52-0.54 0.96-1 1.39l-1.23 0.92c-1.11 0.72-3.49 1.62-6.94-0.43-2.66-1.58-5.58-4.25-8.46-7.71l-0.78-0.99c-2.71-3.59-4.62-7.040-5.52-9.95-1.17-3.8 0.31-5.83 1.29-6.71 0.1-0.090 0.2-0.18 0.3-0.26v0l0.9-0.67c0.54-0.34 1.050-0.53 1.63-0.62 1.24-0.19 2.24 1.12 2.98 2.070l0.18 0.22c1.53 1.94 1.68 2.86 1.63 3.23-0.050 0.42-0.68 0.96-1.24 1.43l-0.080 0.060c-0.010 0.010-0.010 0.010-0.010 0.010 0 0.010-0.010 0.010-0.010 0.010l-0.85 0.79c-0.010 0-0.010 0.010-0.020 0.020 0 0-0.010 0.010-0.020 0.010-0.13 0.15-0.24 0.3-0.34 0.45-0.47 0.8-0.93 2.46-0.21 3.74 0.62 1.12 1.8 2.89 2.89 4.32 1.14 1.38 2.59 2.95 3.54 3.81 0.7 0.64 1.68 0.86 2.53 0.86 0.46 0 0.87-0.060 1.19-0.15 0.17-0.050 0.34-0.12 0.52-0.21 0.010 0 0.010-0.010 0.020-0.020 0.010 0 0.020 0 0.020 0l0.99-0.62c0.030-0.020 0.050-0.050 0.080-0.080l0.010 0.010c0.61-0.42 1.31-0.91 1.74-0.84 0.39 0.040 1.26 0.42 2.8 2.36l0.18 0.22c0.75 0.94 1.77 2.21 1.29 3.33z"></path>
</symbol>
<symbol id="icon-telephone-receiver_icon-footer" viewBox="0 0 32 32">
<path fill="#fff" style="fill: var(--color1, #fff)" d="M25.786 19.283l-0.147-0.186c-1.152-1.453-2.112-2.214-2.938-2.31-0.717-0.102-1.408 0.397-2.144 0.902l-0.781 0.493c-0.096 0.045-0.192 0.083-0.275 0.109-0.461 0.128-1.619 0.205-2.278-0.397-0.762-0.698-1.946-1.978-2.867-3.091-0.883-1.158-1.85-2.605-2.355-3.507-0.429-0.774-0.070-1.85 0.173-2.246 0.045-0.077 0.102-0.154 0.173-0.23l0.691-0.64c0.013-0.013 0.019-0.026 0.026-0.032s0.019-0.006 0.026-0.013c0.627-0.525 1.274-1.069 1.357-1.766 0.109-0.819-0.403-1.926-1.555-3.386l-0.141-0.179c-0.717-0.915-1.798-2.304-3.347-2.074-0.614 0.090-1.158 0.294-1.722 0.653-0.006 0-0.006 0.006-0.013 0.013-0.006 0-0.013 0-0.013 0.006l-0.787 0.576c-0.006 0.006-0.013 0.019-0.019 0.026s-0.013 0.006-0.019 0.013c-0.090 0.077-0.179 0.154-0.269 0.23-0.794 0.71-2.515 2.765-1.344 6.566 0.755 2.458 2.317 5.318 4.525 8.301l-0.019 0.019 1.216 1.517 0.013-0.006c2.394 2.829 4.826 5.018 7.059 6.342 1.491 0.883 2.79 1.178 3.866 1.178 1.408 0 2.413-0.506 2.918-0.838l0.32-0.211c0.038-0.026 0.064-0.058 0.090-0.090l0.691-0.525c0.006-0.006 0.013-0.013 0.019-0.019s0.013 0 0.013-0.006c0.493-0.448 0.838-0.922 1.075-1.478 0.614-1.434-0.486-2.803-1.216-3.712zM26.176 22.643c-0.186 0.435-0.454 0.8-0.845 1.158l-1.030 0.781c-0.934 0.608-2.931 1.357-5.83-0.365-2.234-1.325-4.691-3.565-7.11-6.477l-0.653-0.832c-2.278-3.014-3.878-5.907-4.634-8.358-0.986-3.187 0.256-4.896 1.082-5.632 0.083-0.077 0.173-0.147 0.256-0.218v-0.006l0.755-0.557c0.454-0.288 0.877-0.448 1.363-0.525 1.043-0.154 1.888 0.941 2.509 1.741l0.147 0.186c1.293 1.626 1.414 2.4 1.376 2.714-0.045 0.352-0.582 0.8-1.050 1.197l-0.064 0.058c-0.006 0-0.006 0.006-0.006 0.006-0.006 0-0.006 0-0.013 0.006l-0.717 0.659c0 0.006-0.006 0.013-0.006 0.019-0.006 0.006-0.019 0.006-0.019 0.013-0.115 0.122-0.205 0.25-0.288 0.378-0.397 0.672-0.781 2.061-0.179 3.136 0.525 0.941 1.517 2.432 2.432 3.629 0.96 1.165 2.176 2.477 2.97 3.2 0.589 0.544 1.414 0.723 2.131 0.723 0.378 0 0.73-0.051 0.998-0.128 0.134-0.038 0.282-0.096 0.429-0.173 0.013 0 0.013-0.013 0.026-0.013 0-0.006 0.013-0.006 0.013-0.006l0.832-0.518c0.026-0.019 0.045-0.045 0.070-0.064l0.006 0.006c0.512-0.352 1.094-0.768 1.459-0.71 0.326 0.038 1.062 0.352 2.355 1.984l0.147 0.186c0.627 0.787 1.491 1.862 1.088 2.803z"></path>
</symbol>
</defs>
</svg>
