<!-- Generated by IcoMoon.io -->
<svg version="1.1" xmlns="http://www.w3.org/2000/svg" width="42" height="32" viewBox="0 0 42 32">
<title>Arrow-left</title>
<path fill="#fff" d="M4.062 14.769l12.185-12.185c0.96-0.985 0.96-2.511 0-3.495-0.985-0.985-2.511-0.985-3.495 0l-13.908 13.932c-0.985 0.96-0.985 2.511 0 3.471l13.908 13.932c0.985 0.985 2.511 0.985 3.495 0 0.96-0.985 0.96-2.511 0-3.495l-12.185-12.16z"></path>
<path fill="#011c44" d="M6.523 12.308l9.723-9.723c0.96-0.985 0.96-2.511 0-3.495-0.985-0.985-2.511-0.985-3.495 0l-13.908 13.932c-0.985 0.96-0.985 2.511 0 3.471l13.908 13.932c0.985 0.985 2.511 0.985 3.495 0 0.96-0.985 0.96-2.511 0-3.495l-9.723-9.698h35.323v-4.923h-35.323z"></path>
</svg>
