<!-- Generated by IcoMoon.io -->
<svg version="1.1" xmlns="http://www.w3.org/2000/svg" width="32" height="32" viewBox="0 0 32 32">
<title>nuclear-icon</title>
<path fill="#2b7fff" d="M16.051 1.194c-0.903 0-1.743 0.411-2.457 1.086-0.72 0.669-1.331 1.606-1.84 2.737-0.109 0.234-0.211 0.486-0.309 0.737-0.263-0.040-0.531-0.074-0.794-0.103-0.309-0.029-0.611-0.051-0.903-0.057-0.88-0.023-1.686 0.069-2.389 0.28-0.943 0.286-1.714 0.811-2.166 1.589-0.451 0.783-0.514 1.714-0.291 2.669s0.726 1.954 1.451 2.966c0.149 0.211 0.314 0.423 0.486 0.634-0.171 0.206-0.331 0.417-0.486 0.634-0.726 1.011-1.229 2.006-1.451 2.966-0.223 0.954-0.16 1.886 0.291 2.669 0.451 0.777 1.223 1.303 2.166 1.589 0.937 0.28 2.057 0.349 3.291 0.223 0.257-0.029 0.526-0.063 0.794-0.103 0.091 0.251 0.194 0.497 0.309 0.737 0.509 1.131 1.12 2.069 1.84 2.743 0.714 0.669 1.554 1.080 2.457 1.080 0.897 0 1.737-0.411 2.457-1.080 0.714-0.674 1.326-1.611 1.84-2.743 0.109-0.24 0.211-0.486 0.309-0.737 0.269 0.040 0.531 0.074 0.789 0.103 1.24 0.126 2.354 0.057 3.291-0.223 0.943-0.286 1.72-0.811 2.166-1.589 0.451-0.783 0.514-1.714 0.291-2.669s-0.726-1.954-1.446-2.966c-0.16-0.217-0.32-0.429-0.486-0.634 0.166-0.206 0.326-0.417 0.486-0.634 0.72-1.011 1.229-2.011 1.451-2.966s0.154-1.886-0.297-2.669c-0.446-0.777-1.223-1.303-2.16-1.589-0.709-0.211-1.509-0.303-2.389-0.28-0.297 0.006-0.594 0.029-0.909 0.057-0.257 0.023-0.52 0.063-0.789 0.103-0.097-0.251-0.2-0.497-0.309-0.737-0.514-1.131-1.126-2.069-1.84-2.737-0.72-0.674-1.56-1.086-2.457-1.086v0zM16.051 2.2c0.6 0 1.189 0.263 1.771 0.811 0.583 0.543 1.137 1.371 1.611 2.417 0.080 0.171 0.149 0.343 0.217 0.514-1.143 0.257-2.36 0.646-3.6 1.171-1.246-0.52-2.457-0.914-3.606-1.171 0.069-0.177 0.143-0.349 0.217-0.514 0.474-1.046 1.029-1.874 1.611-2.423 0.589-0.543 1.177-0.806 1.777-0.806v0zM9.429 6.594c0.097 0 0.194 0 0.297 0 0.263 0.006 0.537 0.023 0.823 0.051 0.183 0.017 0.371 0.046 0.56 0.069-0.354 1.126-0.623 2.371-0.789 3.709-1.074 0.811-2.023 1.669-2.817 2.537-0.114-0.149-0.229-0.297-0.337-0.451-0.669-0.931-1.109-1.823-1.291-2.606-0.183-0.777-0.114-1.417 0.189-1.937 0.297-0.52 0.823-0.897 1.583-1.131 0.503-0.154 1.109-0.234 1.783-0.24v0zM22.669 6.594c0.68 0.006 1.28 0.086 1.783 0.24 0.766 0.234 1.286 0.611 1.589 1.131 0.297 0.52 0.366 1.16 0.183 1.937-0.183 0.783-0.623 1.674-1.291 2.606-0.109 0.154-0.223 0.303-0.337 0.451-0.794-0.869-1.743-1.72-2.811-2.537-0.171-1.337-0.44-2.583-0.794-3.709 0.189-0.023 0.377-0.051 0.56-0.069 0.274-0.029 0.549-0.046 0.829-0.051 0.097 0 0.194 0 0.291 0v0zM19.994 6.897c0.269 0.829 0.486 1.737 0.651 2.714-0.531-0.36-1.074-0.697-1.629-1.017s-1.126-0.623-1.697-0.903c0.926-0.349 1.829-0.611 2.674-0.794v0zM12.103 6.897c0.851 0.183 1.749 0.446 2.68 0.794-0.577 0.28-1.143 0.583-1.703 0.903-0.554 0.32-1.097 0.657-1.629 1.017 0.166-0.977 0.389-1.886 0.651-2.714zM16.051 8.206c0.811 0.36 1.64 0.777 2.463 1.251 0.823 0.48 1.6 0.989 2.32 1.514 0.097 0.886 0.149 1.806 0.149 2.76s-0.051 1.874-0.149 2.76c-0.72 0.526-1.491 1.034-2.32 1.509-0.823 0.48-1.651 0.897-2.463 1.257-0.817-0.36-1.646-0.777-2.469-1.257-0.823-0.474-1.6-0.983-2.32-1.509-0.091-0.88-0.149-1.806-0.149-2.76s0.057-1.874 0.149-2.76c0.72-0.526 1.497-1.034 2.32-1.514 0.823-0.474 1.651-0.891 2.469-1.251v0zM16.114 9.714l-2.863 1.766 2.863 1.771 2.869-1.771-2.869-1.766zM10.183 11.811c-0.046 0.64-0.069 1.28-0.069 1.92 0 0.651 0.023 1.297 0.069 1.92-0.76-0.629-1.446-1.274-2.029-1.92 0.583-0.646 1.263-1.291 2.029-1.92zM21.914 11.811c0.766 0.629 1.446 1.274 2.029 1.92-0.583 0.646-1.263 1.291-2.029 1.92 0.046-0.64 0.069-1.28 0.069-1.92 0-0.651-0.023-1.297-0.069-1.92v0zM12.606 12.257v3.497l3.011 1.857v-3.491l-3.011-1.863zM19.629 12.263l-3.011 1.857v3.491l3.011-1.857v-3.491zM7.503 14.503c0.794 0.869 1.743 1.72 2.817 2.537 0.166 1.337 0.434 2.583 0.789 3.709-0.189 0.023-0.377 0.046-0.56 0.069-1.137 0.114-2.131 0.040-2.897-0.189-0.766-0.234-1.291-0.611-1.589-1.131-0.303-0.52-0.366-1.16-0.189-1.937 0.183-0.783 0.623-1.68 1.291-2.611 0.109-0.149 0.223-0.297 0.337-0.446zM24.594 14.503c0.12 0.149 0.234 0.297 0.337 0.446 0.669 0.931 1.109 1.829 1.291 2.611 0.183 0.777 0.114 1.417-0.183 1.937-0.303 0.52-0.823 0.897-1.589 1.131-0.766 0.229-1.76 0.297-2.903 0.189-0.189-0.023-0.371-0.046-0.56-0.069 0.354-1.126 0.623-2.371 0.794-3.709 1.069-0.817 2.017-1.669 2.811-2.537v0zM20.646 17.851c-0.166 0.977-0.383 1.886-0.651 2.714-0.846-0.183-1.749-0.446-2.674-0.794 0.577-0.28 1.143-0.583 1.697-0.903s1.097-0.657 1.629-1.017v0zM11.451 17.851c0.531 0.36 1.074 0.697 1.629 1.017 0.56 0.32 1.126 0.623 1.703 0.903-0.931 0.349-1.829 0.611-2.68 0.794-0.269-0.829-0.486-1.737-0.651-2.714zM16.080 17.897l0.034 0.023 0.040-0.023h-0.074zM16.051 20.349c1.24 0.52 2.457 0.914 3.6 1.171-0.069 0.171-0.137 0.343-0.217 0.514-0.474 1.046-1.029 1.874-1.611 2.423-0.583 0.543-1.171 0.806-1.771 0.806s-1.189-0.263-1.777-0.806c-0.583-0.549-1.137-1.377-1.611-2.423-0.074-0.171-0.149-0.343-0.217-0.514 1.149-0.257 2.36-0.651 3.606-1.171v0z"></path>
</svg>
