<!-- Generated by IcoMoon.io -->
<svg version="1.1" xmlns="http://www.w3.org/2000/svg" width="44" height="32" viewBox="0 0 44 32">
<title>Arrow-right</title>
<path fill="#fff" d="M35.889 14.769l-12.185 12.16c-0.96 0.985-0.96 2.511 0 3.495 0.985 0.985 2.511 0.985 3.495 0l13.908-13.932c0.985-0.96 0.985-2.511 0-3.471l-13.908-13.932c-0.985-0.985-2.511-0.985-3.495 0-0.96 0.985-0.96 2.511 0 3.495l12.185 12.185z"></path>
<path fill="#011c44" d="M33.428 17.231l-9.723 9.698c-0.96 0.985-0.96 2.511 0 3.495 0.985 0.985 2.511 0.985 3.495 0l13.908-13.932c0.985-0.96 0.985-2.511 0-3.471l-13.908-13.932c-0.985-0.985-2.511-0.985-3.495 0-0.96 0.985-0.96 2.511 0 3.495l9.723 9.723h-35.323v4.923h35.323z"></path>
</svg>
