<!-- Generated by IcoMoon.io -->
<svg version="1.1" xmlns="http://www.w3.org/2000/svg" width="32" height="32" viewBox="0 0 32 32">
<title>crown-light</title>
<path fill="#2b7fff" d="M29.687 10.32c-0.253-0.227-0.56-0.373-0.887-0.42-0.327-0.053-0.653 0-0.953 0.147l-6.313 3.080c-0.027 0.020-0.060 0.027-0.087 0.033-0.033 0-0.067 0-0.093-0.013-0.033-0.007-0.060-0.027-0.087-0.047-0.020-0.027-0.040-0.053-0.060-0.080l-3.687-7.287c-0.147-0.307-0.367-0.553-0.64-0.733-0.267-0.173-0.573-0.267-0.88-0.267-0.313 0-0.62 0.093-0.893 0.267-0.267 0.18-0.487 0.427-0.633 0.733l-3.687 7.287c-0.020 0.027-0.040 0.053-0.060 0.080-0.027 0.020-0.053 0.040-0.087 0.047-0.027 0.013-0.060 0.013-0.093 0.013-0.027-0.007-0.060-0.013-0.087-0.033l-6.313-3.080c-0.3-0.147-0.627-0.2-0.953-0.153s-0.633 0.193-0.88 0.42c-0.253 0.233-0.447 0.533-0.547 0.873-0.107 0.347-0.12 0.713-0.047 1.060l3.187 14.893c0.053 0.253 0.153 0.487 0.293 0.693 0.14 0.213 0.32 0.387 0.52 0.513 0.267 0.18 0.573 0.28 0.887 0.28 0.16-0.007 0.32-0.027 0.48-0.073 5.827-1.773 11.98-1.773 17.807-0.013 0.233 0.073 0.467 0.093 0.707 0.060 0.233-0.027 0.46-0.113 0.66-0.247 0.207-0.127 0.387-0.307 0.527-0.513s0.24-0.447 0.3-0.7l3.173-14.893c0.080-0.347 0.067-0.713-0.033-1.053-0.107-0.34-0.293-0.64-0.54-0.873zM28.807 11.86l-3.187 14.893c-0.013 0.073-0.053 0.133-0.113 0.18-0.060 0.033-0.133 0.040-0.2 0.027-6.093-1.853-12.527-1.853-18.62 0-0.033 0.013-0.067 0.013-0.107 0.007-0.033 0-0.067-0.013-0.093-0.033s-0.053-0.047-0.073-0.080c-0.020-0.027-0.033-0.060-0.040-0.1l-3.187-14.893c-0.007-0.040-0.007-0.080 0-0.12s0.027-0.080 0.053-0.113c0.020-0.033 0.053-0.060 0.087-0.080 0.033-0.013 0.067-0.027 0.107-0.027l0.1 0.027 6.327 3.093c0.4 0.2 0.847 0.22 1.267 0.067 0.413-0.147 0.76-0.467 0.967-0.893l3.693-7.287c0.020-0.040 0.047-0.080 0.087-0.107 0.033-0.020 0.080-0.033 0.127-0.033 0.040 0 0.087 0.013 0.12 0.033 0.040 0.027 0.067 0.067 0.087 0.107l3.687 7.287c0.213 0.427 0.56 0.747 0.973 0.893 0.413 0.153 0.867 0.133 1.267-0.067l6.327-3.093c0.040-0.020 0.087-0.027 0.133-0.020s0.093 0.027 0.127 0.060c0.040 0.033 0.067 0.073 0.080 0.127 0.020 0.047 0.020 0.1 0.007 0.147zM20.747 22.313c-0.020 0.2-0.107 0.393-0.247 0.527-0.14 0.14-0.32 0.213-0.5 0.213h-0.080c-2.607-0.287-5.24-0.287-7.847 0-0.2 0.027-0.393-0.040-0.553-0.173-0.153-0.14-0.253-0.333-0.273-0.553s0.040-0.433 0.167-0.607c0.127-0.167 0.313-0.273 0.507-0.3 2.713-0.32 5.44-0.32 8.153 0 0.193 0.027 0.373 0.133 0.5 0.3 0.127 0.16 0.187 0.38 0.173 0.593z"></path>
</svg>
