<!-- Generated by IcoMoon.io -->
<svg version="1.1" xmlns="http://www.w3.org/2000/svg" width="32" height="32" viewBox="0 0 32 32">
<title>instagram-icon-footer</title>
<path fill="#fff" d="M16 10.248c-1.143 0-2.255 0.335-3.2 0.968s-1.684 1.531-2.118 2.583c-0.434 1.051-0.549 2.202-0.328 3.322 0.221 1.112 0.77 2.141 1.577 2.941 0.8 0.808 1.829 1.356 2.941 1.577 1.12 0.221 2.27 0.107 3.322-0.328s1.95-1.173 2.583-2.118c0.632-0.945 0.968-2.057 0.968-3.192 0-1.531-0.602-2.994-1.684-4.069-1.074-1.082-2.537-1.684-4.061-1.684zM16 20.244c-0.846 0-1.669-0.244-2.362-0.716-0.701-0.465-1.25-1.128-1.57-1.905s-0.404-1.63-0.244-2.453c0.168-0.83 0.571-1.585 1.166-2.179s1.349-0.998 2.179-1.166c0.823-0.16 1.676-0.076 2.453 0.244s1.44 0.869 1.905 1.57c0.472 0.693 0.716 1.516 0.716 2.362 0 1.12-0.45 2.202-1.25 2.994-0.792 0.8-1.874 1.25-2.994 1.25zM21.493 3.749h-10.994c-1.79 0-3.512 0.709-4.777 1.973s-1.973 2.987-1.973 4.777v10.994c0 1.79 0.709 3.512 1.973 4.777s2.987 1.973 4.777 1.973h10.994c1.79 0 3.512-0.709 4.777-1.973s1.973-2.987 1.973-4.777v-10.994c0-1.79-0.709-3.512-1.973-4.777s-2.987-1.973-4.777-1.973zM26.743 21.493c0 1.394-0.549 2.728-1.531 3.718-0.99 0.983-2.324 1.531-3.718 1.531h-10.994c-1.394 0-2.728-0.549-3.718-1.531-0.983-0.99-1.531-2.324-1.531-3.718v-10.994c0-1.394 0.549-2.728 1.531-3.718 0.99-0.983 2.324-1.531 3.718-1.531h10.994c1.394 0 2.728 0.549 3.718 1.531 0.983 0.99 1.531 2.324 1.531 3.718v10.994zM23.749 9.493c0 0.251-0.076 0.495-0.213 0.701s-0.335 0.366-0.564 0.457c-0.229 0.091-0.48 0.122-0.716 0.069-0.244-0.046-0.465-0.168-0.64-0.343s-0.297-0.396-0.343-0.64c-0.053-0.236-0.023-0.488 0.069-0.716s0.259-0.427 0.457-0.564c0.206-0.137 0.45-0.213 0.701-0.213 0.328 0 0.648 0.137 0.884 0.366 0.229 0.236 0.366 0.556 0.366 0.884z"></path>
</svg>
