<!-- Generated by IcoMoon.io -->
<svg version="1.1" xmlns="http://www.w3.org/2000/svg" width="32" height="32" viewBox="0 0 32 32">
<title>telephone-receiver_icon-footer</title>
<path fill="#fff" d="M25.786 19.283l-0.147-0.186c-1.152-1.453-2.112-2.214-2.938-2.31-0.717-0.102-1.408 0.397-2.144 0.902l-0.781 0.493c-0.096 0.045-0.192 0.083-0.275 0.109-0.461 0.128-1.619 0.205-2.278-0.397-0.762-0.698-1.946-1.978-2.867-3.091-0.883-1.158-1.85-2.605-2.355-3.507-0.429-0.774-0.070-1.85 0.173-2.246 0.045-0.077 0.102-0.154 0.173-0.23l0.691-0.64c0.013-0.013 0.019-0.026 0.026-0.032s0.019-0.006 0.026-0.013c0.627-0.525 1.274-1.069 1.357-1.766 0.109-0.819-0.403-1.926-1.555-3.386l-0.141-0.179c-0.717-0.915-1.798-2.304-3.347-2.074-0.614 0.090-1.158 0.294-1.722 0.653-0.006 0-0.006 0.006-0.013 0.013-0.006 0-0.013 0-0.013 0.006l-0.787 0.576c-0.006 0.006-0.013 0.019-0.019 0.026s-0.013 0.006-0.019 0.013c-0.090 0.077-0.179 0.154-0.269 0.23-0.794 0.71-2.515 2.765-1.344 6.566 0.755 2.458 2.317 5.318 4.525 8.301l-0.019 0.019 1.216 1.517 0.013-0.006c2.394 2.829 4.826 5.018 7.059 6.342 1.491 0.883 2.79 1.178 3.866 1.178 1.408 0 2.413-0.506 2.918-0.838l0.32-0.211c0.038-0.026 0.064-0.058 0.090-0.090l0.691-0.525c0.006-0.006 0.013-0.013 0.019-0.019s0.013 0 0.013-0.006c0.493-0.448 0.838-0.922 1.075-1.478 0.614-1.434-0.486-2.803-1.216-3.712zM26.176 22.643c-0.186 0.435-0.454 0.8-0.845 1.158l-1.030 0.781c-0.934 0.608-2.931 1.357-5.83-0.365-2.234-1.325-4.691-3.565-7.11-6.477l-0.653-0.832c-2.278-3.014-3.878-5.907-4.634-8.358-0.986-3.187 0.256-4.896 1.082-5.632 0.083-0.077 0.173-0.147 0.256-0.218v-0.006l0.755-0.557c0.454-0.288 0.877-0.448 1.363-0.525 1.043-0.154 1.888 0.941 2.509 1.741l0.147 0.186c1.293 1.626 1.414 2.4 1.376 2.714-0.045 0.352-0.582 0.8-1.050 1.197l-0.064 0.058c-0.006 0-0.006 0.006-0.006 0.006-0.006 0-0.006 0-0.013 0.006l-0.717 0.659c0 0.006-0.006 0.013-0.006 0.019-0.006 0.006-0.019 0.006-0.019 0.013-0.115 0.122-0.205 0.25-0.288 0.378-0.397 0.672-0.781 2.061-0.179 3.136 0.525 0.941 1.517 2.432 2.432 3.629 0.96 1.165 2.176 2.477 2.97 3.2 0.589 0.544 1.414 0.723 2.131 0.723 0.378 0 0.73-0.051 0.998-0.128 0.134-0.038 0.282-0.096 0.429-0.173 0.013 0 0.013-0.013 0.026-0.013 0-0.006 0.013-0.006 0.013-0.006l0.832-0.518c0.026-0.019 0.045-0.045 0.070-0.064l0.006 0.006c0.512-0.352 1.094-0.768 1.459-0.71 0.326 0.038 1.062 0.352 2.355 1.984l0.147 0.186c0.627 0.787 1.491 1.862 1.088 2.803z"></path>
</svg>
